<svg width="838" height="769" viewBox="0 0 838 769" fill="none" xmlns="http://www.w3.org/2000/svg">
<g clip-path="url(#clip0_28_30)">
<path d="M403.481 91.8496C411.362 83.0238 425.077 82.8854 433.14 91.4355L433.519 91.8496C433.531 91.8643 433.546 91.8811 433.562 91.8994C433.651 91.9997 433.787 92.1552 433.97 92.3643C434.336 92.7828 434.888 93.4166 435.615 94.2559C437.07 95.9349 439.221 98.436 441.971 101.679C447.47 108.165 455.358 117.615 464.845 129.393C483.836 152.97 509.154 185.778 534.532 222.762C560.154 260.1 586.161 300.256 605.767 341.392C625.41 382.607 638 423.541 638 462.511C638 520.723 614.874 576.551 573.71 617.713C532.546 658.875 476.715 682 418.5 682C360.285 682 304.454 658.875 263.29 617.713C222.126 576.551 199 520.723 199 462.511C199 423.541 211.59 382.607 231.233 341.392C250.839 300.256 276.846 260.1 302.468 222.762C327.846 185.778 353.164 152.97 372.155 129.393C381.642 117.615 389.53 108.165 395.029 101.679C397.779 98.436 399.93 95.9349 401.385 94.2559C402.112 93.4166 402.664 92.7828 403.03 92.3643C403.213 92.1552 403.349 91.9997 403.438 91.8994C403.454 91.8811 403.469 91.8643 403.481 91.8496Z" stroke="black" stroke-width="40"/>
<path d="M406.902 224.037C413.081 217.107 423.919 217.107 430.098 224.037C430.109 224.05 430.123 224.066 430.14 224.085C430.197 224.15 430.285 224.252 430.403 224.387C430.639 224.657 430.995 225.065 431.461 225.604C432.393 226.681 433.768 228.284 435.525 230.359C439.04 234.511 444.078 240.555 450.135 248.087C462.257 263.161 478.424 284.142 494.634 307.802C510.965 331.639 527.627 357.394 540.207 383.832C552.806 410.309 561 436.839 561 462.266C561 500.126 545.982 536.433 519.257 563.199C492.532 589.965 456.288 605 418.5 605C380.712 605 344.468 589.965 317.743 563.199C291.018 536.433 276 500.126 276 462.266C276 436.839 284.194 410.309 296.793 383.832C309.373 357.394 326.035 331.639 342.366 307.802C358.576 284.142 374.743 263.161 386.865 248.087C392.922 240.555 397.96 234.511 401.475 230.359C403.232 228.284 404.607 226.681 405.539 225.604C406.005 225.065 406.361 224.657 406.597 224.387C406.715 224.252 406.803 224.15 406.86 224.085C406.877 224.066 406.891 224.05 406.902 224.037Z" stroke="black" stroke-width="20"/>
</g>
<defs>
<clipPath id="clip0_28_30">
<rect width="838" height="769" fill="white"/>
</clipPath>
</defs>
</svg>
