<?xml version="1.0" encoding="UTF-8"?>
<svg version="1.1" xmlns="http://www.w3.org/2000/svg" width="400" height="400" viewBox="0 0 400 400">
<!-- Background circle - white stroke -->
<circle cx="200" cy="200" r="180" stroke="white" stroke-width="12" fill="none"/>

<!-- Centered and scaled content -->
<g transform="translate(200, 200) scale(0.85) translate(-150, -150)">
<path d="M0 0 C2.40386295 1.18322969 4.48712718 2.44020405 6.66308594 3.99707031 C7.43749023 4.5460498 8.21189453 5.0950293 9.00976562 5.66064453 C9.83508789 6.25248535 10.66041016 6.84432617 11.51074219 7.45410156 C13.28458621 8.71187594 15.05936248 9.96833638 16.83496094 11.22363281 C17.76356934 11.88057129 18.69217773 12.53750977 19.64892578 13.21435547 C24.67287047 16.74009258 29.74753471 20.19098365 34.82324219 23.64160156 C36.27911743 24.63196411 36.27911743 24.63196411 37.7644043 25.64233398 C40.03329752 27.18482023 42.30285879 28.7263099 44.57324219 30.26660156 C44.63382813 29.55632812 44.69441406 28.84605469 44.75683594 28.11425781 C44.840625 27.19515625 44.92441406 26.27605469 45.01074219 25.32910156 C45.13255859 23.95431641 45.13255859 23.95431641 45.25683594 22.55175781 C45.57324219 20.26660156 45.57324219 20.26660156 46.57324219 19.26660156 C48.64586295 19.17893044 50.72144513 19.15964283 52.79589844 19.16894531 C54.05595703 19.17216797 55.31601563 19.17539063 56.61425781 19.17871094 C57.95475328 19.18706753 59.29524807 19.19553249 60.63574219 19.20410156 C61.98014161 19.20911496 63.32454278 19.21367815 64.66894531 19.21777344 C67.97042159 19.22960669 71.27181022 19.24609185 74.57324219 19.26660156 C74.51450928 20.17313477 74.45577637 21.07966797 74.39526367 22.01367188 C72.98625317 38.31088022 72.98625317 38.31088022 76.90234375 53.70214844 C80.50603131 57.56369148 85.09988462 59.67574024 89.83251953 61.88183594 C95.18042892 64.58389741 100.01096682 68.13921453 104.94824219 71.51660156 C106.91317872 72.81530808 108.8792954 74.11223109 110.84667969 75.40722656 C116.54173301 79.20167018 122.05964959 83.21505942 127.57324219 87.26660156 C130.12942047 89.10884052 132.69426793 90.93874308 135.26074219 92.76660156 C136.18790039 93.42789063 136.18790039 93.42789063 137.13378906 94.10253906 C138.61328237 95.15768158 140.09321066 96.21221414 141.57324219 97.26660156 C140.91324219 97.59660156 140.25324219 97.92660156 139.57324219 98.26660156 C137.64746094 97.34887695 137.64746094 97.34887695 135.26074219 95.86425781 C134.36355469 95.31189453 133.46636719 94.75953125 132.54199219 94.19042969 C131.56230469 93.57619141 130.58261719 92.96195312 129.57324219 92.32910156 C128.55230469 91.69810547 127.53136719 91.06710938 126.47949219 90.41699219 C124.29389039 89.06557942 122.11036386 87.71080576 119.92871094 86.35302734 C115.57113273 83.6434913 111.20040139 80.95563357 106.82910156 78.26831055 C104.64225136 76.92383058 102.45606258 75.57827424 100.27050781 74.23168945 C93.21859164 69.88701855 86.15217684 65.56708964 79.07324219 61.26660156 C67.6594582 54.33126936 56.28532583 47.33234009 44.91552734 40.32519531 C41.51493375 38.230688 38.1127479 36.13879237 34.70996094 34.04785156 C22.96945859 26.83211543 11.24140064 19.59885823 -0.42675781 12.26660156 C-5.63304788 15.10151047 -10.29478303 18.2814958 -14.98925781 21.89160156 C-20.04625136 25.73199354 -25.12231816 29.530225 -30.30175781 33.20410156 C-35.75701369 37.07567535 -41.19253038 40.97316618 -46.61425781 44.89160156 C-47.3901123 45.45226318 -48.1659668 46.0129248 -48.96533203 46.59057617 C-53.81185875 50.09475683 -58.65082383 53.60916567 -63.48535156 57.12988281 C-71.24990886 62.77027171 -79.03847615 68.37762961 -86.8203125 73.99414062 C-95.70003771 80.40342936 -104.57559387 86.81789641 -113.42675781 93.26660156 C-105.50675781 93.59660156 -97.58675781 93.92660156 -89.42675781 94.26660156 C-89.09675781 100.86660156 -88.76675781 107.46660156 -88.42675781 114.26660156 C-87.10675781 113.27660156 -85.78675781 112.28660156 -84.42675781 111.26660156 C-78.40334257 109.88417839 -74.94666314 110.0820408 -69.42675781 113.26660156 C-64.85350314 118.08055385 -64.3016881 121.62507891 -64.32910156 128.12207031 C-64.33051651 128.78370682 -64.33193146 129.44534332 -64.33338928 130.12702942 C-64.33897785 132.23609984 -64.35152817 134.34506333 -64.36425781 136.45410156 C-64.36927429 137.88574065 -64.37383694 139.31738141 -64.37792969 140.74902344 C-64.38894351 144.25491745 -64.40620027 147.76074906 -64.42675781 151.26660156 C-68.38675781 151.26660156 -72.34675781 151.26660156 -76.42675781 151.26660156 C-77.42329115 148.27700155 -77.57857408 146.17422595 -77.63769531 143.04785156 C-77.66605469 142.03335938 -77.69441406 141.01886719 -77.72363281 139.97363281 C-77.77571186 137.83578792 -77.81998446 135.69773859 -77.85644531 133.55957031 C-77.88738281 132.54507813 -77.91832031 131.53058594 -77.95019531 130.48535156 C-77.97992432 129.09219727 -77.97992432 129.09219727 -78.01025391 127.67089844 C-78.49686687 124.86189231 -79.12860246 123.91571214 -81.42675781 122.26660156 C-84.02565564 122.18635498 -84.02565564 122.18635498 -86.42675781 123.26660156 C-88.56212086 126.46187286 -88.66230221 129.12542828 -88.62207031 132.90722656 C-88.61240234 134.51210938 -88.61240234 134.51210938 -88.60253906 136.14941406 C-88.58578125 137.26058594 -88.56902344 138.37175781 -88.55175781 139.51660156 C-88.54273438 140.64324219 -88.53371094 141.76988281 -88.52441406 142.93066406 C-88.50086545 145.70940078 -88.46499506 148.48802815 -88.42675781 151.26660156 C-92.71675781 151.26660156 -97.00675781 151.26660156 -101.42675781 151.26660156 C-102.08675781 136.41660156 -102.74675781 121.56660156 -103.42675781 106.26660156 C-125.20675781 105.77160156 -125.20675781 105.77160156 -147.42675781 105.26660156 C-141.80317505 99.6430188 -141.80317505 99.6430188 -138.63378906 97.39160156 C-137.93060547 96.88822266 -137.22742188 96.38484375 -136.50292969 95.86621094 C-135.75591797 95.33833984 -135.00890625 94.81046875 -134.23925781 94.26660156 C-132.62068025 93.11047473 -131.00219317 91.95422119 -129.38378906 90.79785156 C-128.55959473 90.21132812 -127.73540039 89.62480469 -126.88623047 89.02050781 C-123.05337571 86.28721135 -119.24062275 83.52629897 -115.42675781 80.76660156 C-113.92686526 79.68311947 -112.42686496 78.59978652 -110.92675781 77.51660156 C-110.18425781 76.98035156 -109.44175781 76.44410156 -108.67675781 75.89160156 C-78.30175781 53.95410156 -78.30175781 53.95410156 -47.92675781 32.01660156 C-47.18393555 31.48010986 -46.44111328 30.94361816 -45.67578125 30.39086914 C-44.17907081 29.30992965 -42.68232614 28.22903756 -41.18554688 27.14819336 C-36.61251693 23.84583662 -32.04039426 20.54223416 -27.47045898 17.2355957 C-25.95679744 16.14244045 -24.44136813 15.05172826 -22.92407227 13.96362305 C-19.36404195 11.40862061 -15.83458792 8.82801925 -12.36035156 6.15722656 C-11.72581055 5.67858154 -11.09126953 5.19993652 -10.4375 4.70678711 C-9.25624449 3.8142021 -8.08544564 2.90753691 -6.92773438 1.98461914 C-3.04158244 -0.9192066 -3.04158244 -0.9192066 0 0 Z " fill="#FFFFFF" transform="translate(149.4267578125,45.7333984375)"/>
<path d="M0 0 C1.34899891 0.00192542 2.69799794 0.00376574 4.04699707 0.00552368 C24.51433244 0.04425203 44.69241888 0.61317632 65 3.3125 C66.38199493 3.49124005 67.76399374 3.66995017 69.14599609 3.84863281 C94.17368389 7.13190279 118.78011361 12.15734402 143 19.3125 C143 19.6425 143 19.9725 143 20.3125 C135.55220782 19.84288051 128.16317503 19.13312372 120.7578125 18.2265625 C60.49403447 10.86558255 -1.3159071 7.73969669 -61.92767334 13.12890625 C-64.15394788 13.32613871 -66.38086509 13.51480211 -68.60791016 13.703125 C-89.85727754 15.523506 -110.95617683 18.120801 -132.04516602 21.29394531 C-140.687276 22.59054476 -149.26847199 23.77525937 -158 24.3125 C-155.42890607 21.74140607 -153.35279342 21.38102638 -149.8515625 20.39453125 C-149.22026428 20.2165097 -148.58896606 20.03848816 -147.9385376 19.85507202 C-145.836709 19.26810034 -143.73155289 18.69477437 -141.625 18.125 C-140.53206635 17.82778549 -140.53206635 17.82778549 -139.41705322 17.52456665 C-112.11443034 10.15031652 -84.15526162 5.02692189 -56 2.3125 C-55.1083313 2.22636444 -54.2166626 2.14022888 -53.29797363 2.05148315 C-35.5222896 0.39040143 -17.84636343 -0.0508249 0 0 Z " fill="#FFFFFF" transform="translate(158,252.6875)"/>
<path d="M0 0 C2.6875 1.625 2.6875 1.625 4.6875 3.625 C5.47125 2.985625 6.255 2.34625 7.0625 1.6875 C11.20496348 -1.56729274 13.96461401 -1.77144121 19.140625 -1.7265625 C23.30911229 -1.15115781 24.88173148 0.53865463 27.6875 3.625 C32.13332878 9.97618397 30.80662618 19.72287582 30.75 27.0625 C30.74548828 28.17560547 30.74097656 29.28871094 30.73632812 30.43554688 C30.72461207 33.16538796 30.70667891 35.89520114 30.6875 38.625 C26.3975 38.625 22.1075 38.625 17.6875 38.625 C17.63851562 36.85511719 17.58953125 35.08523437 17.5390625 33.26171875 C17.46403668 30.94529641 17.38848877 28.62889095 17.3125 26.3125 C17.2815625 25.14525391 17.250625 23.97800781 17.21875 22.77539062 C17.16074219 21.09799805 17.16074219 21.09799805 17.1015625 19.38671875 C17.0701416 18.35506592 17.0387207 17.32341309 17.00634766 16.26049805 C16.86075371 13.39656764 16.86075371 13.39656764 14.6875 10.625 C12.1875 10.125 12.1875 10.125 9.6875 10.625 C7.39575923 14.06261116 7.39225953 15.54571615 7.2734375 19.60546875 C7.23476562 20.76884766 7.19609375 21.93222656 7.15625 23.13085938 C7.10984375 24.95327148 7.10984375 24.95327148 7.0625 26.8125 C7.02382812 28.03904297 6.98515625 29.26558594 6.9453125 30.52929688 C6.85094206 33.56094715 6.76812826 36.59295312 6.6875 39.625 C2.7275 39.625 -1.2325 39.625 -5.3125 39.625 C-5.9725 30.055 -6.6325 20.485 -7.3125 10.625 C-9.2925 10.625 -11.2725 10.625 -13.3125 10.625 C-16.02913793 13.34163793 -15.62003121 14.92694653 -15.7265625 18.7265625 C-15.78457031 20.54414063 -15.78457031 20.54414063 -15.84375 22.3984375 C-15.8746875 23.66945312 -15.905625 24.94046875 -15.9375 26.25 C-15.99550781 28.168125 -15.99550781 28.168125 -16.0546875 30.125 C-16.14920756 33.29142211 -16.231952 36.45819166 -16.3125 39.625 C-20.6025 39.625 -24.8925 39.625 -29.3125 39.625 C-29.47972049 34.08928137 -29.64031942 28.55342623 -29.79467773 23.01733398 C-29.8481766 21.13251524 -29.9035118 19.24774772 -29.96069336 17.36303711 C-30.0423851 14.66010589 -30.1175554 11.95706161 -30.19140625 9.25390625 C-30.21844131 8.40599014 -30.24547638 7.55807404 -30.27333069 6.6844635 C-30.32530526 4.66526894 -30.32438213 2.64482842 -30.3125 0.625 C-28.64565985 -1.04184015 -26.65606931 -0.58572764 -24.375 -0.625 C-23.03115234 -0.66367188 -23.03115234 -0.66367188 -21.66015625 -0.703125 C-20.88542969 -0.59484375 -20.11070312 -0.4865625 -19.3125 -0.375 C-18.6525 0.615 -17.9925 1.605 -17.3125 2.625 C-16.714375 2.150625 -16.11625 1.67625 -15.5 1.1875 C-10.60629736 -2.30800189 -5.44237309 -2.25909826 0 0 Z " fill="#FFFFFF" transform="translate(169.3125,156.375)"/>
<path d="M0 0 C1.13835202 3.36318178 0.85259349 5.3064845 -0.2578125 8.6484375 C-0.55147705 9.56069092 -0.8451416 10.47294434 -1.14770508 11.4128418 C-1.4702124 12.390354 -1.79271973 13.36786621 -2.125 14.375 C-6.94812554 29.57358007 -10.9209323 45.1652402 -13 61 C-13.11085938 61.83402344 -13.22171875 62.66804688 -13.3359375 63.52734375 C-14.63175593 75.1721986 -14.71807519 87.40299244 -13 99 C-17.28359673 97.1144852 -19.15103592 94.64034299 -22 91 C-22.763125 91.804375 -23.52625 92.60875 -24.3125 93.4375 C-28.42234303 97.35618754 -31.99838709 97.34859988 -37.4296875 97.27734375 C-41.58524246 96.828948 -43.65718505 95.54053936 -47 93 C-52.6511656 85.71297067 -52.70584338 78.96719333 -52 70 C-50.37816364 64.01310691 -46.98519113 60.50024058 -42 57 C-39.28791157 56.09597052 -37.49607251 55.80820876 -34.6875 55.75 C-33.57955078 55.71132812 -33.57955078 55.71132812 -32.44921875 55.671875 C-29.22926267 56.10325668 -26.82852887 57.44900293 -24 59 C-23.82460693 58.36199463 -23.64921387 57.72398926 -23.46850586 57.06665039 C-10.58434783 10.58434783 -10.58434783 10.58434783 0 0 Z M-40 65 C-43.83011275 69.22633131 -44.290334 73.2118234 -44.21875 78.71484375 C-43.81383813 82.9447267 -42.10248836 85.81876247 -39.25 88.875 C-35.91027806 90.54486097 -33.6879065 90.50867676 -30 90 C-26.52640548 87.97632105 -24.29661059 85.88983176 -23 82 C-22.49857088 75.8574933 -22.15641957 70.12477391 -26 65 C-31.89408727 61.39137514 -34.07319994 61.61325711 -40 65 Z " fill="#FFFFFF" transform="translate(270,141)"/>
<path d="M0 0 C-1.29987416 6.93095511 -2.90054089 13.72757957 -4.75 20.53125 C-5.0087793 21.48898315 -5.26755859 22.44671631 -5.53417969 23.43347168 C-6.0770103 25.43724676 -6.62162724 27.44053871 -7.16796875 29.44335938 C-8.0047861 32.51758274 -8.83069055 35.59461191 -9.65625 38.671875 C-10.18683847 40.62517982 -10.71806538 42.57831134 -11.25 44.53125 C-11.61883301 45.91237976 -11.61883301 45.91237976 -11.99511719 47.32141113 C-12.22875977 48.16989624 -12.46240234 49.01838135 -12.703125 49.89257812 C-12.90583008 50.63963013 -13.10853516 51.38668213 -13.31738281 52.15637207 C-14 54 -14 54 -16 56 C-20.70127597 41.85284237 -24.34259839 27.44570589 -28 13 C-28.2673999 13.78238037 -28.5347998 14.56476074 -28.81030273 15.37084961 C-30.01635209 18.89410746 -31.22686365 22.41581581 -32.4375 25.9375 C-33.06881836 27.78504883 -33.06881836 27.78504883 -33.71289062 29.66992188 C-34.11572266 30.83974609 -34.51855469 32.00957031 -34.93359375 33.21484375 C-35.30540771 34.29886475 -35.67722168 35.38288574 -36.06030273 36.49975586 C-37 39 -37 39 -38 40 C-39.99958364 40.04080783 -42.00045254 40.04254356 -44 40 C-46.09756048 35.26230804 -47.88686817 30.54292412 -49.48046875 25.60546875 C-49.80704216 24.59532463 -49.80704216 24.59532463 -50.14021301 23.56477356 C-50.59470544 22.15609555 -51.0475443 20.74688303 -51.4987793 19.3371582 C-52.19170248 17.17438308 -52.89139607 15.01387928 -53.59179688 12.85351562 C-54.03425638 11.4792961 -54.47632782 10.10495156 -54.91796875 8.73046875 C-55.31781982 7.48676514 -55.7176709 6.24306152 -56.12963867 4.96166992 C-57 2 -57 2 -57 0 C-54.36 0 -51.72 0 -49 0 C-46.44253571 5.52742281 -44.79722259 11.03897975 -43.3125 16.9375 C-43.08755859 17.81212891 -42.86261719 18.68675781 -42.63085938 19.58789062 C-42.08223208 21.72403521 -41.53874036 23.86134466 -41 26 C-39.40452361 23.00466119 -38.2893547 20.03275942 -37.2734375 16.796875 C-36.9640625 15.8171875 -36.6546875 14.8375 -36.3359375 13.828125 C-36.01882812 12.81234375 -35.70171875 11.7965625 -35.375 10.75 C-35.05015625 9.71875 -34.7253125 8.6875 -34.390625 7.625 C-33.59076111 5.08425587 -32.79400125 2.54258113 -32 0 C-29.69 0 -27.38 0 -25 0 C-21.35505296 8.47093837 -18.66804955 17.18668878 -16 26 C-13.74625883 20.23676746 -11.92236073 14.47253467 -10.3125 8.5 C-10.08755859 7.67757812 -9.86261719 6.85515625 -9.63085938 6.0078125 C-9.08388575 4.00612177 -8.54146031 2.00318912 -8 0 C-4.71303767 -0.79953138 -3.28976808 -1.09658936 0 0 Z M-41 28 C-40 30 -40 30 -40 30 Z " fill="#FFFFFF" transform="translate(98,200)"/>
<path d="M0 0 C4.02505878 2.99448817 6.04327952 6.53475388 7.6171875 11.203125 C8.35982624 17.94732104 8.49396743 24.58248426 4.9609375 30.55078125 C1.88705607 34.33058313 -1.79827416 36.67494555 -6.3828125 38.203125 C-14.07809539 38.84527583 -21.03165086 39.03314422 -27.3828125 34.203125 C-31.92504802 29.54135697 -33.67228298 24.91915656 -33.7578125 18.453125 C-33.6214233 11.93051216 -32.5314209 6.24945842 -27.69921875 1.57421875 C-19.85412744 -4.34755985 -8.52428163 -5.02260578 0 0 Z M-17.0078125 8.140625 C-20.09609658 12.12288605 -20.68952892 15.21898315 -20.3828125 20.203125 C-19.34824142 24.34924697 -18.0247918 26.7751388 -14.3828125 29.203125 C-11.53569805 28.98959142 -9.88817301 28.60019397 -7.6328125 26.828125 C-4.77529176 23.11334804 -4.90056796 18.67869279 -5.3828125 14.203125 C-6.94716538 10.1805033 -7.77004913 8.61163391 -11.3828125 6.203125 C-14.52429142 5.90619885 -14.52429142 5.90619885 -17.0078125 8.140625 Z " fill="#FFFFFF" transform="translate(125.3828125,158.796875)"/>
<path d="M0 0 C4.14591625 3.6523548 6.28569434 6.95527736 7.625 12.3125 C7.625 15.6125 7.625 18.9125 7.625 22.3125 C-0.295 22.6425 -8.215 22.9725 -16.375 23.3125 C-15.70678312 26.44029105 -15.70678312 26.44029105 -13.25 27.5 C-7.57419645 29.10403144 -2.11710619 28.24998672 3.625 27.3125 C5.10820272 31.15137763 5.84919163 33.37454091 4.625 37.3125 C-3.74423899 39.57664195 -12.33741681 40.93558715 -20.5546875 37.42578125 C-25.54237042 34.37537432 -28.55826491 29.77914632 -30.375 24.3125 C-31.54772878 16.2762217 -29.90039367 10.00709063 -25.375 3.3125 C-18.60718303 -3.81151786 -8.46792157 -4.23396078 0 0 Z M-17.375 10.3125 C-17.375 11.3025 -17.375 12.2925 -17.375 13.3125 C-13.085 13.3125 -8.795 13.3125 -4.375 13.3125 C-5.85139003 8.25241361 -5.85139003 8.25241361 -9.375 6.3125 C-13.3228088 6.3125 -14.56008826 7.64974565 -17.375 10.3125 Z " fill="#FFFFFF" transform="translate(236.375,156.6875)"/>
<path d="M0 0 C4.64159617 4.64159617 5.74901966 9.07911999 5.88671875 15.5234375 C5.91364555 16.50952499 5.91364555 16.50952499 5.94111633 17.51553345 C5.99484437 19.59362572 6.02899125 21.67149347 6.0625 23.75 C6.09570653 25.16799976 6.13019924 26.58597001 6.16601562 28.00390625 C6.25054651 31.4607218 6.31753568 34.91761638 6.375 38.375 C4.065 38.375 1.755 38.375 -0.625 38.375 C-0.955 37.385 -1.285 36.395 -1.625 35.375 C-2.594375 36.035 -3.56375 36.695 -4.5625 37.375 C-8.88446351 39.82469592 -12.75037282 40.26129585 -17.625 39.375 C-20.81000291 37.75354397 -22.84611096 36.40171736 -25 33.5625 C-26.3636632 28.78967882 -25.982771 25.29276039 -24.1875 20.6875 C-21.40926709 16.34955739 -17.45979694 14.73502016 -12.625 13.375 C-9.2922119 12.82803339 -5.99829145 12.51584724 -2.625 12.375 C-4.31307908 8.14415097 -4.31307908 8.14415097 -7.625 5.375 C-9.25360483 5.43742039 -10.87993456 5.57212931 -12.5 5.75 C-13.36367187 5.84023437 -14.22734375 5.93046875 -15.1171875 6.0234375 C-17.34860645 6.33625324 -19.45442758 6.77935454 -21.625 7.375 C-21.955 5.395 -22.285 3.415 -22.625 1.375 C-16.02156167 -3.153072 -7.18522019 -3.22096077 0 0 Z M-16.3125 22.625 C-17.85382509 25.34658381 -17.85382509 25.34658381 -17.625 28.5625 C-16.8799439 31.40050115 -16.8799439 31.40050115 -14.9375 32.8125 C-10.82319842 33.81327606 -7.84182364 33.11149852 -4.25 30.9375 C-1.72727265 26.95935303 -2.30991274 22.96127011 -2.625 18.375 C-7.6419409 18.375 -12.48135649 19.41753102 -16.3125 22.625 Z " fill="#FFFFFF" transform="translate(179.625,199.625)"/>
<path d="M0 0 C9.9 0 19.8 0 30 0 C30 6.7486819 30 6.7486819 27.84765625 9.578125 C27.40099609 10.18140625 26.95433594 10.7846875 26.49414062 11.40625 C26.02169922 12.0146875 25.54925781 12.623125 25.0625 13.25 C24.13590324 14.48376295 23.21008555 15.71811149 22.28515625 16.953125 C21.53105469 17.95859375 20.77695313 18.9640625 20 20 C19.67 20.66 19.34 21.32 19 22 C18.34 22 17.68 22 17 22 C16.67 23.32 16.34 24.64 16 26 C15.34 26 14.68 26 14 26 C13.67 27.32 13.34 28.64 13 30 C12.34 30 11.68 30 11 30 C11 30.66 11 31.32 11 32 C17.6 32.33 24.2 32.66 31 33 C31 34.98 31 36.96 31 39 C20.37719894 40.39315424 9.68873373 40.09675083 -1 40 C-1.77249937 35.49618292 -0.68471238 33.12618798 1.8515625 29.5390625 C3.09494252 27.89005957 4.35335045 26.25230205 5.625 24.625 C6.24246094 23.81289062 6.85992187 23.00078125 7.49609375 22.1640625 C8.72234721 20.55315269 9.95435722 18.94660689 11.19238281 17.34472656 C13.83044139 13.92280401 16.41394665 10.46133294 19 7 C12.73 7 6.46 7 0 7 C0 4.69 0 2.38 0 0 Z " fill="#FFFFFF" transform="translate(120,199)"/>
<path d="M0 0 C0 2.64 0 5.28 0 8 C-1.6396875 8.37125 -1.6396875 8.37125 -3.3125 8.75 C-7.11331909 10.03841325 -8.17381515 10.55053973 -10 14 C-10.97580922 17.11796282 -11.10475656 19.91039903 -11.0625 23.16796875 C-11.05089844 24.63073242 -11.05089844 24.63073242 -11.0390625 26.12304688 C-11.02617187 27.13431641 -11.01328125 28.14558594 -11 29.1875 C-10.97461537 31.2017707 -10.95354008 33.21610196 -10.9375 35.23046875 C-10.92589844 36.12145264 -10.91429687 37.01243652 -10.90234375 37.93041992 C-11 40 -11 40 -12 41 C-14.33297433 41.04092937 -16.66705225 41.04241723 -19 41 C-19.92947107 36.29796986 -20.13223651 31.75187765 -20.09765625 26.9765625 C-20.0962413 26.23038666 -20.09482635 25.48421082 -20.09336853 24.71542358 C-20.08780874 22.35190682 -20.07526389 19.98848773 -20.0625 17.625 C-20.0574798 16.01432429 -20.0529178 14.40364709 -20.04882812 12.79296875 C-20.03785251 8.86194201 -20.02061596 4.93098752 -20 1 C-17.69 1 -15.38 1 -13 1 C-12.67 2.32 -12.34 3.64 -12 5 C-11.401875 4.360625 -10.80375 3.72125 -10.1875 3.0625 C-6.91607132 -0.0219899 -4.32190112 -0.11680814 0 0 Z " fill="#FFFFFF" transform="translate(215,197)"/>
<path d="M0 0 C1.134375 0.020625 2.26875 0.04125 3.4375 0.0625 C4.29189108 13.41236067 4.55728427 26.68659026 4.4375 40.0625 C1.7975 40.0625 -0.8425 40.0625 -3.5625 40.0625 C-4.64288056 31.70616243 -4.71263624 23.41644978 -4.6875 15 C-4.69106905 13.6569001 -4.69497309 12.31380105 -4.69921875 10.97070312 C-4.69792969 9.71064453 -4.69664063 8.45058594 -4.6953125 7.15234375 C-4.69362061 5.43325806 -4.69362061 5.43325806 -4.69189453 3.67944336 C-4.49245368 -0.35415378 -4.18710624 0.073458 0 0 Z " fill="#FFFFFF" transform="translate(108.5625,198.9375)"/>
<path d="M0 0 C1.34106208 6.46148093 1.34106208 6.46148093 -0.1875 8.875 C-2.12945819 10.08035336 -3.75547595 10.6130131 -6 11 C-8.125 8.875 -8.125 8.875 -10 6 C-9.375 2.75 -9.375 2.75 -8 0 C-5.13822943 -1.43088528 -3.06624227 -0.59991697 0 0 Z " fill="#FFFFFF" transform="translate(113,241)"/>
</g>
</svg>