<svg width="838" height="769" viewBox="0 0 838 769" fill="none" xmlns="http://www.w3.org/2000/svg">
<path d="M215 91H781.242C785.168 91 788.011 94.8056 787.007 98.6012C701.899 420.154 568.58 543.378 217.191 674.946C213.276 676.412 209 673.553 209 669.372V97C209 93.6863 211.686 91 215 91Z" stroke="black" stroke-width="40"/>
<path d="M49 649V120C49 103.984 61.9837 91 78 91H106C122.016 91 135 103.984 135 120V649C135 665.016 122.016 678 106 678H78C61.9837 678 49 665.016 49 649Z" stroke="black" stroke-width="40"/>
</svg>
